<svg width="200" height="200" viewBox="0 0 200 200" fill="none" xmlns="http://www.w3.org/2000/svg">
<path d="M170.833 102.617C162.667 115.25 151.092 125.7 138.15 134.325C137.537 144.522 134.658 154.454 129.724 163.399C124.789 172.344 117.923 180.076 109.625 186.033C108.251 187.068 106.57 187.613 104.85 187.583C103.789 187.616 102.735 187.408 101.767 186.975C100.488 186.455 99.3644 185.615 98.5023 184.537C97.6401 183.459 97.0684 182.178 96.8417 180.817C95.6083 173.433 92.2166 165.283 87.4416 156.95C82.0333 158.5 76.65 159.733 71.7166 160.492C71.25 160.65 70.8 160.65 70.325 160.65C68.1278 160.623 66.0282 159.738 64.475 158.184L42.0833 135.867C41.1531 134.93 40.4588 133.786 40.0575 132.528C39.6562 131.271 39.5593 129.936 39.775 128.634C40.6916 123.717 41.775 118.317 43.3166 112.942C35 108.017 26.8167 104.792 19.5667 103.559C18.2044 103.334 16.9225 102.764 15.843 101.903C14.7635 101.043 13.9224 99.9198 13.4 98.6418C12.8602 97.3631 12.6609 95.9663 12.8215 94.5877C12.9822 93.209 13.4973 91.8955 14.3166 90.7752C26.3416 73.8585 45.475 63.5252 65.975 62.1418C74.45 49.2252 84.9417 37.6752 97.575 29.5252C121.633 13.8085 150.008 12.5835 179.608 12.5835C184.075 12.5835 187.775 16.2752 187.775 20.7335C187.775 48.9168 186.383 78.6002 170.817 102.617H170.833ZM123.033 142.942C115.633 146.792 108.075 149.859 100.675 152.634C103.908 158.167 106.375 163.875 108.075 169.4C115.478 162.184 120.667 153.005 123.033 142.942ZM30.6833 91.9918C36.2166 93.6918 41.7833 96.2918 47.475 99.3752C50.1 91.9918 53.3333 84.2918 57.0333 76.9002C47.0143 79.3698 37.8866 84.5947 30.6833 91.9835V91.9918ZM106.375 42.9085C80.1583 60.0002 62.8917 96.7835 56.7167 127.1L72.9083 143.267C103.283 137.1 139.975 119.708 157.1 93.5585C168.967 75.4002 170.983 52.6168 171.275 28.7752C147.233 29.0668 124.583 31.2168 106.375 42.9252V42.9085ZM130.283 83.5252C126.649 83.5208 123.164 82.0768 120.592 79.5092C118.02 76.9416 116.569 73.4596 116.558 69.8252C116.558 62.2835 122.725 56.1252 130.283 56.1252C137.833 56.1252 144.008 62.2835 144.008 69.8252C143.842 77.3668 137.842 83.5252 130.283 83.5252ZM24.0416 159.108C24.8842 156.293 26.6159 153.827 28.9774 152.078C31.3389 150.33 34.2033 149.393 37.1416 149.408C44.7 149.408 50.8667 155.567 50.8667 163.108C50.8667 169.267 46.7 174.508 41.1583 176.192L21.575 182.192C21.2583 182.192 21.1083 182.342 20.8083 182.342C20.4436 182.343 20.0822 182.272 19.7451 182.133C19.4079 181.994 19.1015 181.789 18.8436 181.532C18.5857 181.274 18.3814 180.967 18.2423 180.63C18.1032 180.293 18.0322 179.932 18.0333 179.567C18.0333 179.259 18.0333 178.959 18.1916 178.809L24.0416 159.1V159.108Z" fill="#151515"/>
</svg>
