<svg width="200" height="200" viewBox="0 0 200 200" fill="none" xmlns="http://www.w3.org/2000/svg">
<path d="M58.668 44.4355H109.461C112.697 44.4355 115.32 41.8125 115.32 38.5762V24.7637C115.32 21.5273 112.697 18.9043 109.461 18.9043H58.668C55.4316 18.9043 52.8086 21.5273 52.8086 24.7637V38.5762C52.8086 41.8125 55.4316 44.4355 58.668 44.4355Z" fill="#151515"/>
<path d="M88.9531 137.781H37.2832V125.365H91.1328C93.3184 118.223 97.0156 111.742 101.85 106.293H37.2832V93.877H118.391C125.061 90.7227 132.514 88.9551 140.381 88.9551C143.371 88.9551 146.303 89.2129 149.152 89.7031V31.3359C149.152 28.0996 146.529 25.4766 143.293 25.4766H120.119V40.6719C120.119 44.8887 117.094 48.3086 113.359 48.3086H54.7676C51.0352 48.3086 48.0078 44.8887 48.0078 40.6719V25.4766H24.834C21.5977 25.4766 18.9746 28.0996 18.9746 31.3359V162.18C18.9746 165.416 21.5977 168.039 24.834 168.039H96.8945C91.8242 160.064 88.8867 150.602 88.8867 140.451C88.8848 139.555 88.9082 138.664 88.9531 137.781ZM37.2832 62.3906H130.629V74.8047H37.2832V62.3906Z" fill="#151515"/>
<path d="M140.381 99.8066C117.934 99.8066 99.7363 118.004 99.7363 140.451C99.7363 162.898 117.934 181.096 140.381 181.096C162.828 181.096 181.025 162.898 181.025 140.451C181.025 118.004 162.828 99.8066 140.381 99.8066ZM166.191 149.807H139.91C136.674 149.807 134.051 147.184 134.051 143.947V118.215C134.051 114.979 136.674 112.355 139.91 112.355H140.852C144.088 112.355 146.711 114.979 146.711 118.215V137.148H166.191C169.428 137.148 172.051 139.771 172.051 143.008V143.949C172.051 147.184 169.428 149.807 166.191 149.807Z" fill="#151515"/>
</svg>
