<svg width="200" height="200" viewBox="0 0 200 200" fill="none" xmlns="http://www.w3.org/2000/svg">
<path d="M45.8333 91.6665L16.6667 74.9998V41.6665L45.8333 24.9998L75 41.6665V74.9998L45.8333 91.6665ZM45.8333 72.4998L58.3333 65.4165V51.2498L45.8333 44.1665L33.3333 51.2498V65.4165L45.8333 72.4998ZM137.5 98.1248V78.7498L166.667 95.8332V154.167L116.667 183.333L66.6667 154.167V95.8332L95.8333 78.7498V98.1248L83.3333 105.417V144.583L116.667 163.958L150 144.583V105.417L137.5 98.1248ZM108.333 116.667V16.6665H183.333L166.667 41.6665L183.333 66.6665H125V116.667H108.333Z" fill="#151515"/>
</svg>
